<?xml version="1.0" encoding="utf-8"?>
<!-- Generator: Adobe Illustrator 23.0.4, SVG Export Plug-In . SVG Version: 6.00 Build 0)  -->
<svg version="1.1" id="Layer_1" xmlns="http://www.w3.org/2000/svg" xmlns:xlink="http://www.w3.org/1999/xlink" x="0px" y="0px"
	 viewBox="0 0 512 512" style="enable-background:new 0 0 512 512;" xml:space="preserve">
<style type="text/css">
	.st0{fill:#FFFFFF;}
</style>
<path class="st0" d="M349.9,392.5c4.7,0,8.5-3.8,8.5-8.5v-8.5h8.5c4.7,0,8.5-3.8,8.5-8.5s-3.8-8.5-8.5-8.5h-8.5v-8.5
	c0-4.7-3.8-8.5-8.5-8.5s-8.5,3.8-8.5,8.5v8.5h-8.5c-4.7,0-8.5,3.8-8.5,8.5s3.8,8.5,8.5,8.5h8.5v8.5
	C341.3,388.7,345.2,392.5,349.9,392.5z"/>
<path class="st0" d="M469.3,59.7c0,4.7,3.8,8.5,8.5,8.5s8.5-3.8,8.5-8.5c4.7,0,8.5-3.8,8.5-8.5s-3.8-8.5-8.5-8.5
	c0-4.7-3.8-8.5-8.5-8.5s-8.5,3.8-8.5,8.5c-4.7,0-8.5,3.8-8.5,8.5S464.6,59.7,469.3,59.7z"/>
<path class="st0" d="M256,102.4c-65.9,0-119.5,53.6-119.5,119.5c0,4.7,3.8,8.5,8.5,8.5s8.5-3.8,8.5-8.5
	c0-56.5,45.9-102.4,102.4-102.4s102.4,45.9,102.4,102.4c0,4.7,3.8,8.5,8.5,8.5s8.5-3.8,8.5-8.5C375.5,156,321.9,102.4,256,102.4z"/>
<path class="st0" d="M332.8,25.6c0,4.7,3.8,8.5,8.5,8.5s8.5-3.8,8.5-8.5c4.7,0,8.5-3.8,8.5-8.5s-3.8-8.5-8.5-8.5
	c0-4.7-3.8-8.5-8.5-8.5s-8.5,3.8-8.5,8.5c-4.7,0-8.5,3.8-8.5,8.5S328.1,25.6,332.8,25.6z"/>
<path class="st0" d="M76.8,230.4c4.7,0,8.5-3.8,8.5-8.5c0-94.1,76.6-170.7,170.7-170.7s170.7,76.6,170.7,170.7
	c0,4.7,3.8,8.5,8.5,8.5s8.5-3.8,8.5-8.5c0-103.5-84.2-187.7-187.7-187.7S68.3,118.3,68.3,221.9C68.3,226.6,72.1,230.4,76.8,230.4z"
	/>
<path class="st0" d="M177.9,299.9l-7.4-37.1c-0.8-4-4.3-6.9-8.4-6.9c-4.1,0-7.6,2.9-8.4,6.9l-7.4,37.1l-37.1,7.4
	c-4,0.8-6.9,4.3-6.9,8.4c0,4.1,2.9,7.6,6.9,8.4l37.1,7.4l7.4,37.1c0.8,4,4.3,6.9,8.4,6.9c4.1,0,7.6-2.9,8.4-6.9l7.4-37.1l37.1-7.4
	c4-0.8,6.9-4.3,6.9-8.4c0-4.1-2.9-7.6-6.9-8.4L177.9,299.9z M169,315.9c-3.4,0.7-6,3.3-6.7,6.7l-0.2,0.8l-0.2-0.8
	c-0.7-3.4-3.3-6-6.7-6.7l-0.8-0.2l0.8-0.2c3.4-0.7,6-3.3,6.7-6.7l0.2-0.8l0.2,0.8c0.7,3.4,3.3,6,6.7,6.7l0.8,0.2L169,315.9z"/>
<path class="st0" d="M503.5,128c-4.7,0-8.5,3.8-8.5,8.5v332.8c0,14.1-11.5,25.6-25.6,25.6H264.5v-19.6c12.4-4.4,44.8-14.5,76.8-14.5
	c74.3,0,124.8,16.5,125.3,16.6c2.6,0.9,5.5,0.4,7.7-1.2c2.2-1.6,3.5-4.2,3.5-6.9V93.9c0-3.4-2-6.5-5.2-7.8
	c-0.8-0.3-18.9-8-54.3-10.9c-4.8-0.4-8.8,3.1-9.2,7.8c-0.4,4.7,3.1,8.8,7.8,9.2c22,1.8,36.7,5.6,43.9,7.8V458
	c-19.3-5.1-62.3-14.3-119.5-14.3c-37.2,0-73.7,12.2-85,16.4c-10-4.4-40.4-16.4-77.1-16.4c-58.8,0-107.2,9.7-128,14.6V100.5
	c8-2,23.3-5.4,43.4-8.5c4.7-0.7,7.9-5.1,7.1-9.7c-0.7-4.7-5.1-7.9-9.7-7.1c-31.3,4.8-50.9,10.4-51.7,10.6c-3.7,1-6.2,4.4-6.2,8.2
	v375.5c0,2.7,1.3,5.2,3.4,6.8c1.5,1.1,3.3,1.7,5.1,1.7c0.8,0,1.6-0.1,2.3-0.3c0.6-0.2,59.6-16.7,134.2-16.7
	c31.2,0,57.9,9.7,68.3,14.1v20.1H42.7c-14.1,0-25.6-11.5-25.6-25.6V136.5c0-4.7-3.8-8.5-8.5-8.5S0,131.8,0,136.5v332.8
	C0,492.9,19.1,512,42.7,512h426.7c23.5,0,42.7-19.1,42.7-42.7V136.5C512,131.8,508.2,128,503.5,128z"/>
<path class="st0" d="M76.8,34.1h8.5v8.5c0,4.7,3.8,8.5,8.5,8.5s8.5-3.8,8.5-8.5v-8.5h8.5c4.7,0,8.5-3.8,8.5-8.5s-3.8-8.5-8.5-8.5
	h-8.5V8.5c0-4.7-3.8-8.5-8.5-8.5c-4.7,0-8.5,3.8-8.5,8.5v8.5h-8.5c-4.7,0-8.5,3.8-8.5,8.5C68.3,30.3,72.1,34.1,76.8,34.1z"/>
<path class="st0" d="M247.5,145.1v290.1c0,4.7,3.8,8.5,8.5,8.5c4.7,0,8.5-3.8,8.5-8.5V145.1c0-4.7-3.8-8.5-8.5-8.5
	S247.5,140.4,247.5,145.1z"/>
<path class="st0" d="M401.1,230.4c4.7,0,8.5-3.8,8.5-8.5c0-84.7-68.9-153.6-153.6-153.6s-153.6,68.9-153.6,153.6
	c0,4.7,3.8,8.5,8.5,8.5s8.5-3.8,8.5-8.5c0-75.3,61.3-136.5,136.5-136.5s136.5,61.3,136.5,136.5C392.5,226.6,396.4,230.4,401.1,230.4
	z"/>
</svg>
